<svg width="86" height="27" viewBox="0 0 86 27" fill="none" xmlns="http://www.w3.org/2000/svg">
<path d="M9.51995 6.28856C9.79505 7.14571 9.42606 8.05503 8.68223 8.49402C8.78103 8.47881 8.87914 8.45611 8.977 8.42452C9.97135 8.10558 10.5194 7.0404 10.1999 6.04637L9.85241 4.96973H21.8478L23.0288 1.31324C23.3479 0.319444 24.4134 -0.228351 25.4082 0.0910593C26.4026 0.410002 26.9507 1.47517 26.6311 2.46921L25.5763 5.73585C26.5985 6.18911 27.5217 6.82723 28.3025 7.60762C29.9311 9.23533 30.9419 11.4824 30.9419 13.9554C30.9419 16.4283 29.9311 18.6754 28.3025 20.3031C27.2141 21.3907 25.8489 22.2027 24.3244 22.622V26.2371L18.515 22.941H8.99058C6.5163 22.941 4.26772 21.9308 2.63934 20.3031C1.01074 18.6756 0 16.4285 0 13.9556C0 11.4827 1.01074 9.23533 2.63934 7.60786C3.42017 6.82746 4.34334 6.18911 5.36555 5.73609L4.3108 2.46944C3.99144 1.47541 4.53931 0.410236 5.53366 0.0912933C6.52847 -0.228117 7.594 0.319678 7.91312 1.31348L9.51995 6.28856ZM9.76742 12.3094C10.6768 12.3094 11.4141 13.0465 11.4141 13.9556C11.4141 14.8647 10.6768 15.6013 9.76742 15.6013C8.85806 15.6013 8.12032 14.8644 8.12032 13.9556C8.12032 13.0467 8.85759 12.3094 9.76742 12.3094ZM21.1749 12.3094C22.0843 12.3094 22.8216 13.0465 22.8216 13.9556C22.8216 14.8647 22.0843 15.6013 21.1749 15.6013C20.2656 15.6013 19.5278 14.8644 19.5278 13.9556C19.5278 13.0467 20.2651 12.3094 21.1749 12.3094ZM15.4711 12.3094C16.3804 12.3094 17.1177 13.0465 17.1177 13.9556C17.1177 14.8647 16.3804 15.6013 15.4711 15.6013C14.5617 15.6013 13.8242 14.8644 13.8242 13.9556C13.8242 13.0467 14.5615 12.3094 15.4711 12.3094ZM21.9513 8.76288H8.99058C7.56379 8.76288 6.26555 9.34765 5.32294 10.2897C4.38057 11.2318 3.79524 12.5298 3.79524 13.9556C3.79524 15.3814 4.38033 16.6796 5.32294 17.6214C6.26555 18.5635 7.56379 19.1483 8.99058 19.1483H21.9511C23.3779 19.1483 24.6761 18.5635 25.6187 17.6214C26.5611 16.6796 27.1464 15.3814 27.1464 13.9556C27.1464 12.5298 26.5613 11.2316 25.6187 10.2897C24.6761 9.34765 23.3779 8.76288 21.9511 8.76288H21.9513Z" fill="#FFD13A"/>
<path d="M43.007 20.6681C42.1445 20.6681 41.355 20.5619 40.6384 20.3496C39.9352 20.1373 39.3049 19.8255 38.7476 19.4141C38.2035 19.0028 37.7125 18.5052 37.2747 17.9213L39.1456 15.7916C39.7958 16.6939 40.4394 17.3109 41.0763 17.6427C41.7265 17.9611 42.4298 18.1204 43.1861 18.1204C43.5975 18.1204 43.9624 18.0673 44.2809 17.9611C44.6126 17.8417 44.8713 17.6758 45.0571 17.4635C45.2429 17.2512 45.3358 16.9991 45.3358 16.7072C45.3358 16.4949 45.2893 16.3025 45.1964 16.13C45.1036 15.9442 44.9709 15.785 44.7984 15.6523C44.6259 15.5063 44.4202 15.3802 44.1813 15.2741C43.9425 15.1547 43.6771 15.0552 43.3852 14.9755C43.0933 14.8826 42.7748 14.8097 42.4298 14.7566C41.6867 14.5841 41.0365 14.3784 40.4792 14.1396C39.9219 13.8875 39.4575 13.5823 39.0859 13.224C38.7144 12.8524 38.4357 12.4345 38.25 11.97C38.0775 11.5056 37.9912 10.9815 37.9912 10.3976C37.9912 9.8005 38.1239 9.24982 38.3893 8.74559C38.6547 8.22808 39.0196 7.78356 39.484 7.41202C39.9617 7.04048 40.5057 6.75519 41.1161 6.55615C41.7398 6.35711 42.3966 6.25759 43.0866 6.25759C43.9359 6.25759 44.6789 6.35711 45.3159 6.55615C45.9528 6.74192 46.5035 7.01394 46.9679 7.37221C47.4456 7.73048 47.8437 8.16837 48.1621 8.68588L46.2713 10.517C45.9926 10.1455 45.6874 9.83367 45.3557 9.58155C45.0372 9.32944 44.6856 9.14367 44.3008 9.02424C43.9292 8.89155 43.5444 8.8252 43.1463 8.8252C42.7084 8.8252 42.3303 8.88491 42.0118 9.00434C41.6933 9.11049 41.4412 9.26973 41.2555 9.48203C41.083 9.69434 40.9967 9.9531 40.9967 10.2583C40.9967 10.4971 41.0564 10.7094 41.1758 10.8952C41.2953 11.081 41.4678 11.2469 41.6933 11.3928C41.9189 11.5255 42.1909 11.6449 42.5094 11.7511C42.8279 11.8572 43.1795 11.9501 43.5643 12.0297C44.2941 12.1757 44.951 12.3681 45.5348 12.607C46.1187 12.8458 46.6163 13.1377 47.0276 13.4827C47.4522 13.8145 47.7773 14.2125 48.0029 14.677C48.2285 15.1281 48.3413 15.639 48.3413 16.2096C48.3413 17.1517 48.1157 17.9545 47.6645 18.618C47.2134 19.2814 46.5897 19.7923 45.7936 20.1506C44.9974 20.4956 44.0686 20.6681 43.007 20.6681Z" fill="white"/>
<path d="M55.4442 20.6681C54.303 20.6681 53.3078 20.4359 52.4586 19.9714C51.6094 19.507 50.9459 18.8701 50.4682 18.0607C49.9905 17.2512 49.7517 16.3224 49.7517 15.2741C49.7517 14.4647 49.8844 13.7216 50.1497 13.0448C50.4151 12.3681 50.7867 11.7843 51.2644 11.2933C51.7421 10.7891 52.306 10.4043 52.9562 10.1389C53.6197 9.86021 54.3362 9.72088 55.1058 9.72088C55.8224 9.72088 56.4858 9.85358 57.0962 10.119C57.7066 10.3711 58.2308 10.736 58.6686 11.2137C59.1198 11.6781 59.4648 12.2288 59.7036 12.8657C59.9425 13.5026 60.0487 14.1993 60.0221 14.9556L60.0022 15.8314H51.543L51.0852 14.0998H57.6734L57.355 14.458V14.0201C57.3284 13.6619 57.209 13.3368 56.9967 13.0448C56.7977 12.7529 56.5389 12.5273 56.2205 12.3681C55.902 12.2089 55.5437 12.1293 55.1456 12.1293C54.5618 12.1293 54.0642 12.2421 53.6528 12.4676C53.2548 12.6932 52.9496 13.0249 52.7373 13.4628C52.5249 13.9007 52.4188 14.4315 52.4188 15.0552C52.4188 15.6921 52.5515 16.2428 52.8169 16.7072C53.0955 17.1716 53.4803 17.5365 53.9713 17.8019C54.4755 18.054 55.066 18.1801 55.7428 18.1801C56.2072 18.1801 56.6318 18.1071 57.0166 17.9611C57.4014 17.8152 57.8128 17.5631 58.2507 17.2048L59.6041 19.0957C59.2193 19.4407 58.7947 19.7326 58.3303 19.9714C57.8658 20.197 57.3882 20.3695 56.8972 20.4889C56.4062 20.6084 55.9219 20.6681 55.4442 20.6681Z" fill="white"/>
<path d="M62.1506 20.469V9.93983H64.977V20.469H62.1506ZM63.5439 7.77029C62.9998 7.77029 62.5752 7.6376 62.27 7.37221C61.9648 7.10683 61.8122 6.72865 61.8122 6.23769C61.8122 5.78653 61.9648 5.42162 62.27 5.14297C62.5885 4.85104 63.0131 4.70508 63.5439 4.70508C64.0879 4.70508 64.5125 4.84441 64.8177 5.12306C65.1229 5.38845 65.2755 5.75999 65.2755 6.23769C65.2755 6.70211 65.1163 7.07365 64.7978 7.35231C64.4926 7.63096 64.0746 7.77029 63.5439 7.77029Z" fill="white"/>
<path d="M68.8117 20.469V7.27269H71.6381V20.469H68.8117ZM66.8412 12.4676V9.93983H73.7877V12.4676H66.8412Z" fill="white"/>
<path d="M76.9038 25.047L79.2127 19.6331L79.2525 21.2652L74.1172 9.93983H77.3218L79.8894 16.0105C79.9956 16.2361 80.0951 16.5015 80.188 16.8067C80.2941 17.0986 80.3804 17.3839 80.4467 17.6626L79.969 17.8616C80.0486 17.636 80.1415 17.3773 80.2477 17.0854C80.3538 16.7934 80.46 16.4816 80.5661 16.1499L82.7755 9.93983H85.9999L81.5812 20.469L79.77 25.047H76.9038Z" fill="white"/>
</svg>
