<svg width="1122" height="911" viewBox="0 0 1122 911" fill="none" xmlns="http://www.w3.org/2000/svg">
<path d="M676.593 134.558C684.114 82.9849 741 -33.2221 927.667 9.44485C1065 40.1119 1045.11 181.831 1044.04 219.435C1042.96 257.039 1029 324.726 1077.34 391.335C1125.69 457.944 1154.7 525.635 1053.71 517.035C952.713 508.435 808 484.452 728.164 379.521C648.328 274.59 669.072 186.129 676.593 134.558Z" fill="#FFD13A"/>
<path d="M243.072 630.389C194.648 649.662 65.5663 658.501 9.18353 475.509C-32.9246 341.242 99.7517 287.606 132.855 269.734C165.958 251.862 231.56 230.115 265.071 154.94C298.583 79.7651 342.7 20.7971 385.749 112.56C428.799 204.324 480.385 341.64 429.43 463.246C378.475 584.851 291.494 611.117 243.072 630.389Z" stroke="#FFD13A"/>
<path d="M717.368 276.645C717.368 276.645 809.685 158.364 938.068 302.609C1066.45 446.854 1173.18 531.96 1095.29 614.18C1017.4 696.4 890.463 719.48 812.57 801.7C734.677 883.92 669.77 945.946 584.662 886.805C499.554 827.664 480.805 720.918 515.424 653.127C550.043 585.336 717.368 276.645 717.368 276.645Z" fill="#363636"/>
</svg>
