<svg width="24" height="24" viewBox="0 0 24 24" fill="none" xmlns="http://www.w3.org/2000/svg">
<path d="M6.43201 14.086L5.73201 16.686L3.18801 16.74C2.41821 15.3065 2.00918 13.7071 1.99629 12.0801C1.98339 10.4531 2.36702 8.84744 3.11401 7.40198L5.37901 7.81699L6.37101 10.069C5.92465 11.3745 5.94444 12.7944 6.42701 14.087" fill="#F5BC14"/>
<path d="M21.825 10.132C22.1639 11.915 22.0111 13.7567 21.3831 15.4595C20.7551 17.1623 19.6755 18.662 18.26 19.798L15.407 19.652L15.007 17.131C16.1851 16.4404 17.0902 15.3661 17.571 14.088H12.224V10.132H21.829H21.825Z" fill="#5184F3"/>
<path d="M18.26 19.798C17.1159 20.717 15.7835 21.3729 14.3574 21.7192C12.9313 22.0655 11.4465 22.0937 10.0083 21.8018C8.57006 21.5098 7.21375 20.9049 6.03557 20.0299C4.8574 19.1549 3.88623 18.0314 3.19101 16.739L6.43201 14.086C6.73626 14.8971 7.21402 15.6319 7.83189 16.239C8.44975 16.8462 9.19279 17.311 10.009 17.601C10.8253 17.8911 11.6951 17.9992 12.5575 17.9181C13.4199 17.8369 14.2542 17.5683 15.002 17.131L18.26 19.798Z" fill="#44A958"/>
<path d="M18.383 4.3L15.143 6.952C14.3841 6.47945 13.5284 6.18409 12.6395 6.08789C11.7507 5.99169 10.8516 6.09714 10.0091 6.39638C9.16666 6.69562 8.4025 7.18095 7.77349 7.81628C7.14448 8.45161 6.66682 9.22059 6.37602 10.066L3.11902 7.4C3.80591 6.07319 4.78139 4.91716 5.97375 4.01686C7.16611 3.11657 8.54505 2.4949 10.0092 2.19753C11.4734 1.90017 12.9856 1.93467 14.4347 2.29851C15.8838 2.66234 17.233 3.34626 18.383 4.3Z" fill="#E2402F"/>
</svg>
