<svg width="26" height="26" viewBox="0 0 26 26" fill="none" xmlns="http://www.w3.org/2000/svg">
<path d="M26 0H0V26H26V0Z" fill="#FEE500"/>
<path d="M12.667 3.43301C7.14399 3.43301 2.66699 6.96801 2.66699 11.333C2.66699 14.139 4.52199 16.596 7.30799 18.002L6.36699 21.518C6.34966 21.5697 6.34713 21.6251 6.35967 21.6781C6.37222 21.7312 6.39935 21.7796 6.43799 21.818C6.4911 21.8711 6.5629 21.9013 6.63799 21.902C6.70177 21.8994 6.76291 21.8758 6.81199 21.835L10.867 19.099C11.463 19.1864 12.0646 19.2312 12.667 19.233C18.189 19.233 22.667 15.697 22.667 11.333C22.667 6.96901 18.188 3.43301 12.667 3.43301Z" fill="#2B1718"/>
</svg>
