<svg width="32" height="32" viewBox="0 0 32 32" fill="none" xmlns="http://www.w3.org/2000/svg">
<path d="M25.065 13.9776C24.9085 13.8211 24.6963 13.7332 24.475 13.7332C24.2536 13.7332 24.0414 13.8211 23.8849 13.9776L14.794 23.1077C14.4065 23.4953 13.9465 23.8027 13.4401 24.0125C12.9338 24.2222 12.3911 24.3302 11.843 24.3303C10.7362 24.3303 9.67462 23.8907 8.89189 23.1081C8.10917 22.3255 7.66939 21.264 7.66931 20.1571C7.66924 19.0503 8.10886 17.9887 8.89148 17.206L17.696 8.36552C18.1669 7.90221 18.8017 7.6437 19.4622 7.64631C20.1228 7.64892 20.7555 7.91244 21.2226 8.37946C21.6898 8.84648 21.9534 9.47917 21.9562 10.1397C21.959 10.8003 21.7006 11.4351 21.2374 11.906L12.4328 20.7465C12.274 20.8986 12.0626 20.9835 11.8427 20.9835C11.6229 20.9835 11.4114 20.8986 11.2527 20.7465C11.0962 20.59 11.0083 20.3777 11.0083 20.1564C11.0083 19.9351 11.0962 19.7228 11.2527 19.5663L19.0916 11.6915C19.2436 11.5341 19.3277 11.3233 19.3258 11.1045C19.3239 10.8856 19.2361 10.6763 19.0814 10.5215C18.9266 10.3668 18.7173 10.279 18.4985 10.2771C18.2796 10.2752 18.0688 10.3593 17.9114 10.5114L10.0725 18.3862C9.83993 18.6187 9.65546 18.8947 9.5296 19.1985C9.40374 19.5023 9.33896 19.828 9.33896 20.1568C9.33896 20.4857 9.40374 20.8113 9.5296 21.1151C9.65546 21.419 9.83993 21.695 10.0725 21.9275C10.5496 22.3828 11.1837 22.6368 11.8432 22.6368C12.5026 22.6368 13.1368 22.3828 13.6138 21.9275L22.4176 13.0862C23.1838 12.3002 23.6095 11.2441 23.6024 10.1464C23.5954 9.04883 23.1562 7.99818 22.38 7.22209C21.6038 6.446 20.5531 6.00696 19.4555 6.00008C18.3579 5.9932 17.3017 6.41904 16.5159 7.18534L7.7113 16.0258C6.61557 17.1215 6 18.6077 6 20.1573C6 21.7068 6.61557 23.193 7.7113 24.2887C8.80703 25.3844 10.2932 26 11.8427 26C13.3923 26 14.8785 25.3844 15.9742 24.2887L25.065 15.1611C25.143 15.0836 25.2049 14.9914 25.2471 14.8898C25.2894 14.7882 25.3111 14.6793 25.3111 14.5694C25.3111 14.4594 25.2894 14.3505 25.2471 14.2489C25.2049 14.1474 25.143 14.0552 25.065 13.9776Z" fill="#232527"/>
</svg>
