<svg width="93" height="26" viewBox="0 0 93 26" fill="none" xmlns="http://www.w3.org/2000/svg">
<path d="M39.2 20.464C38.096 20.464 37.096 20.336 36.2 20.08C35.32 19.808 34.536 19.424 33.848 18.928C33.16 18.416 32.544 17.816 32 17.128L34.472 14.32C35.272 15.392 36.072 16.112 36.872 16.48C37.688 16.848 38.528 17.032 39.392 17.032C39.824 17.032 40.216 16.976 40.568 16.864C40.92 16.752 41.192 16.592 41.384 16.384C41.576 16.16 41.672 15.888 41.672 15.568C41.672 15.328 41.608 15.112 41.48 14.92C41.368 14.728 41.208 14.56 41 14.416C40.792 14.272 40.544 14.144 40.256 14.032C39.968 13.904 39.664 13.8 39.344 13.72C39.024 13.624 38.696 13.544 38.36 13.48C37.432 13.272 36.624 13.016 35.936 12.712C35.248 12.408 34.672 12.04 34.208 11.608C33.76 11.16 33.424 10.656 33.2 10.096C32.976 9.52 32.864 8.88 32.864 8.176C32.864 7.424 33.032 6.736 33.368 6.112C33.72 5.472 34.184 4.928 34.76 4.48C35.352 4.016 36.032 3.664 36.8 3.424C37.568 3.168 38.368 3.04 39.2 3.04C40.304 3.04 41.248 3.16 42.032 3.4C42.832 3.624 43.512 3.952 44.072 4.384C44.648 4.816 45.136 5.336 45.536 5.944L43.016 8.368C42.68 7.952 42.312 7.608 41.912 7.336C41.528 7.064 41.112 6.856 40.664 6.712C40.232 6.568 39.784 6.496 39.32 6.496C38.84 6.496 38.424 6.56 38.072 6.688C37.736 6.8 37.472 6.968 37.28 7.192C37.088 7.4 36.992 7.656 36.992 7.96C36.992 8.232 37.072 8.464 37.232 8.656C37.392 8.848 37.608 9.024 37.88 9.184C38.152 9.328 38.464 9.456 38.816 9.568C39.168 9.664 39.536 9.744 39.92 9.808C40.8 9.984 41.592 10.216 42.296 10.504C43.016 10.792 43.632 11.144 44.144 11.56C44.672 11.976 45.072 12.472 45.344 13.048C45.632 13.608 45.776 14.264 45.776 15.016C45.776 16.184 45.488 17.176 44.912 17.992C44.352 18.792 43.576 19.408 42.584 19.84C41.608 20.256 40.48 20.464 39.2 20.464Z" fill="white"/>
<path d="M54.5069 20.464C53.0989 20.464 51.8749 20.184 50.8349 19.624C49.7949 19.048 48.9869 18.272 48.4109 17.296C47.8349 16.304 47.5469 15.176 47.5469 13.912C47.5469 12.936 47.7069 12.04 48.0269 11.224C48.3469 10.408 48.7949 9.704 49.3709 9.112C49.9469 8.504 50.6269 8.04 51.4109 7.72C52.2109 7.384 53.0829 7.216 54.0269 7.216C54.9229 7.216 55.7389 7.376 56.4749 7.696C57.2269 8.016 57.8749 8.464 58.4189 9.04C58.9629 9.616 59.3789 10.296 59.6669 11.08C59.9549 11.864 60.0829 12.72 60.0509 13.648L60.0269 14.68H49.8749L49.3229 12.52H56.9069L56.4989 12.976V12.496C56.4669 12.096 56.3389 11.744 56.1149 11.44C55.9069 11.12 55.6269 10.872 55.2749 10.696C54.9229 10.52 54.5229 10.432 54.0749 10.432C53.4509 10.432 52.9149 10.56 52.4669 10.816C52.0349 11.056 51.7069 11.416 51.4829 11.896C51.2589 12.36 51.1469 12.936 51.1469 13.624C51.1469 14.328 51.2909 14.944 51.5789 15.472C51.8829 15.984 52.3149 16.384 52.8749 16.672C53.4509 16.96 54.1309 17.104 54.9149 17.104C55.4589 17.104 55.9389 17.024 56.3549 16.864C56.7869 16.704 57.2509 16.432 57.7469 16.048L59.5469 18.592C59.0509 19.024 58.5229 19.376 57.9629 19.648C57.4029 19.92 56.8269 20.12 56.2349 20.248C55.6589 20.392 55.0829 20.464 54.5069 20.464Z" fill="white"/>
<path d="M62.7134 20.224V7.48H66.5534V20.224H62.7134ZM64.6334 4.96C63.9134 4.96 63.3454 4.792 62.9294 4.456C62.5294 4.104 62.3294 3.608 62.3294 2.968C62.3294 2.392 62.5374 1.92 62.9534 1.552C63.3694 1.184 63.9294 1 64.6334 1C65.3534 1 65.9134 1.176 66.3134 1.528C66.7134 1.864 66.9134 2.344 66.9134 2.968C66.9134 3.56 66.7054 4.04 66.2894 4.408C65.8894 4.776 65.3374 4.96 64.6334 4.96Z" fill="white"/>
<path d="M71.2175 20.224V4.264H75.0575V20.224H71.2175ZM68.9615 10.84V7.48H77.5295V10.84H68.9615Z" fill="white"/>
<path d="M81.332 25.744L84.236 18.904L84.284 20.872L78.14 7.48H82.484L85.172 13.888C85.316 14.208 85.452 14.552 85.58 14.92C85.708 15.288 85.804 15.64 85.868 15.976L85.34 16.288C85.436 16.048 85.54 15.752 85.652 15.4C85.78 15.032 85.916 14.64 86.06 14.224L88.412 7.48H92.78L87.356 20.224L85.148 25.744H81.332Z" fill="white"/>
<path opacity="0.3" d="M11.9994 23.6501C15.2107 23.6501 17.814 23.0282 17.814 22.2611C17.814 21.4939 15.2107 20.8721 11.9994 20.8721C8.7881 20.8721 6.18481 21.4939 6.18481 22.2611C6.18481 23.0282 8.7881 23.6501 11.9994 23.6501Z" fill="#E3E8E7"/>
<path d="M19.6272 3.21756C20.1982 3.21898 20.7454 3.44644 21.1492 3.85019C21.5529 4.25395 21.7804 4.80116 21.7818 5.37216V14.5282C21.7804 15.0992 21.5529 15.6464 21.1492 16.0501C20.7454 16.4539 20.1982 16.6813 19.6272 16.6827H13.4556L12.7902 17.5588L12.0006 18.5967L11.2092 17.5588L10.5438 16.6827H4.3728C3.8018 16.6813 3.2546 16.4539 2.85084 16.0501C2.44709 15.6464 2.21962 15.0992 2.21819 14.5282V5.37216C2.21962 4.80116 2.44709 4.25395 2.85084 3.85019C3.2546 3.44644 3.8018 3.21898 4.3728 3.21756H19.6278M19.6278 0.997559H4.3728C3.21306 0.997559 2.10082 1.45826 1.28076 2.27832C0.4607 3.09838 0 4.21062 0 5.37035V14.5263C0.000318102 15.686 0.461126 16.798 1.28112 17.618C2.10111 18.438 3.21316 18.8988 4.3728 18.8991H9.4446L12.0006 22.2591L14.5566 18.8991H19.6284C20.788 18.8988 21.9001 18.438 22.7201 17.618C23.5401 16.798 24.0009 15.686 24.0012 14.5263V5.37035C24.0012 4.79611 23.8881 4.22749 23.6683 3.69695C23.4486 3.16642 23.1265 2.68437 22.7204 2.27832C22.3144 1.87227 21.8323 1.55017 21.3018 1.33042C20.7713 1.11066 20.202 0.997559 19.6278 0.997559Z" fill="white"/>
<path d="M14.868 9.24816C14.2513 9.24902 13.653 9.03876 13.1724 8.65236L12.5562 8.15555C12.3984 8.02957 12.2025 7.96094 12.0006 7.96094C11.7987 7.96094 11.6028 8.02957 11.445 8.15555L10.8288 8.65236C10.3471 9.03745 9.7487 9.24723 9.13199 9.24723C8.51527 9.24723 7.91689 9.03745 7.43518 8.65236L6.81898 8.15555C6.6612 8.02957 6.46529 7.96094 6.26338 7.96094C6.06147 7.96094 5.86556 8.02957 5.70779 8.15555C5.51923 8.29519 5.28399 8.3565 5.05127 8.32668C4.81855 8.29685 4.60637 8.17819 4.45912 7.99553C4.31187 7.81286 4.24096 7.58033 4.26121 7.34658C4.28146 7.11284 4.39131 6.89598 4.56778 6.74136C5.04949 6.35627 5.64787 6.14648 6.26458 6.14648C6.8813 6.14648 7.47967 6.35627 7.96138 6.74136L8.57758 7.23816C8.73503 7.36487 8.93108 7.43395 9.13319 7.43395C9.33529 7.43395 9.53133 7.36487 9.68878 7.23816L10.305 6.74136C10.7867 6.35627 11.3851 6.14648 12.0018 6.14648C12.6185 6.14648 13.2169 6.35627 13.6986 6.74136L14.3148 7.23816C14.4722 7.36487 14.6683 7.43395 14.8704 7.43395C15.0725 7.43395 15.2685 7.36487 15.426 7.23816L16.0422 6.74136C16.5238 6.35642 17.1221 6.14672 17.7387 6.14672C18.3553 6.14672 18.9535 6.35642 19.4352 6.74136C19.6175 6.89418 19.7326 7.11245 19.7558 7.34924C19.7789 7.58603 19.7082 7.82245 19.5589 8.00769C19.4096 8.19292 19.1936 8.31218 18.9573 8.33983C18.721 8.36748 18.4832 8.30131 18.2952 8.15555C18.1374 8.02957 17.9415 7.96094 17.7396 7.96094C17.5377 7.96094 17.3418 8.02957 17.184 8.15555L16.5678 8.65236C16.0861 9.03966 15.4861 9.24998 14.868 9.24816Z" fill="#46FFBC"/>
<path d="M14.868 13.8374C14.2515 13.8387 13.6532 13.6291 13.1724 13.2434L12.5562 12.7466C12.3984 12.6206 12.2025 12.552 12.0006 12.552C11.7987 12.552 11.6028 12.6206 11.445 12.7466L10.8288 13.2452C10.3471 13.6303 9.7487 13.84 9.13199 13.84C8.51527 13.84 7.91689 13.6303 7.43518 13.2452L6.81898 12.7466C6.66134 12.6203 6.46538 12.5515 6.26338 12.5515C6.06139 12.5515 5.86543 12.6203 5.70779 12.7466C5.51923 12.8862 5.28399 12.9475 5.05127 12.9177C4.81855 12.8879 4.60637 12.7692 4.45912 12.5865C4.31187 12.4039 4.24096 12.1714 4.26121 11.9376C4.28146 11.7039 4.39131 11.487 4.56778 11.3324C5.04917 10.9466 5.64767 10.7363 6.26458 10.7363C6.8815 10.7363 7.48 10.9466 7.96138 11.3324L8.57758 11.8292C8.73536 11.9552 8.93128 12.0238 9.13319 12.0238C9.33509 12.0238 9.531 11.9552 9.68878 11.8292L10.305 11.3324C10.7866 10.947 11.385 10.737 12.0018 10.737C12.6186 10.737 13.217 10.947 13.6986 11.3324L14.3148 11.8292C14.4726 11.9552 14.6685 12.0238 14.8704 12.0238C15.0723 12.0238 15.2682 11.9552 15.426 11.8292L16.0422 11.3324C16.5237 10.947 17.122 10.7371 17.7387 10.7371C18.3554 10.7371 18.9537 10.947 19.4352 11.3324C19.5306 11.4063 19.6104 11.4986 19.6697 11.6038C19.7291 11.7089 19.7669 11.8248 19.7809 11.9448C19.7949 12.0647 19.7849 12.1862 19.7514 12.3023C19.718 12.4183 19.6617 12.5264 19.5859 12.6205C19.5101 12.7145 19.4164 12.7924 19.3101 12.8498C19.2038 12.9071 19.0872 12.9427 18.967 12.9544C18.8468 12.9662 18.7255 12.9539 18.6102 12.9182C18.4948 12.8825 18.3877 12.8241 18.2952 12.7466C18.1377 12.6199 17.9417 12.5508 17.7396 12.5508C17.5375 12.5508 17.3414 12.6199 17.184 12.7466L16.5678 13.2434C16.0858 13.63 15.4859 13.8397 14.868 13.8374Z" fill="#FFD13A"/>
</svg>
