<svg width="32" height="32" viewBox="0 0 32 32" fill="none" xmlns="http://www.w3.org/2000/svg">
<path d="M16.8 22C17.8605 21.9987 18.8772 21.5769 19.627 20.827C20.3769 20.0772 20.7987 19.0605 20.8 18V10.9944C20.8012 10.5739 20.719 10.1573 20.5581 9.76883C20.3971 9.38033 20.1607 9.02765 19.8624 8.73121L18.0688 6.93761C17.7724 6.63935 17.4197 6.4029 17.0312 6.24195C16.6427 6.081 16.2261 5.99877 15.8056 6.00001H12C10.9395 6.00128 9.92285 6.42312 9.17298 7.17299C8.42311 7.92286 8.00127 8.93954 8 10V18C8.00127 19.0605 8.42311 20.0772 9.17298 20.827C9.92285 21.5769 10.9395 21.9987 12 22H16.8ZM9.6 18V10C9.6 9.36349 9.85286 8.75304 10.3029 8.30296C10.753 7.85287 11.3635 7.60001 12 7.60001C12 7.60001 15.9352 7.61121 16 7.61921V9.20001C16 9.62436 16.1686 10.0313 16.4686 10.3314C16.7687 10.6314 17.1757 10.8 17.6 10.8H19.1808C19.1888 10.8648 19.2 18 19.2 18C19.2 18.6365 18.9471 19.247 18.4971 19.6971C18.047 20.1472 17.4365 20.4 16.8 20.4H12C11.3635 20.4 10.753 20.1472 10.3029 19.6971C9.85286 19.247 9.6 18.6365 9.6 18ZM24 12.4V21.2C23.9987 22.2605 23.5769 23.2772 22.827 24.027C22.0772 24.7769 21.0605 25.1987 20 25.2H12.8C12.5878 25.2 12.3843 25.1157 12.2343 24.9657C12.0843 24.8157 12 24.6122 12 24.4C12 24.1878 12.0843 23.9844 12.2343 23.8343C12.3843 23.6843 12.5878 23.6 12.8 23.6H20C20.6365 23.6 21.247 23.3472 21.6971 22.8971C22.1471 22.447 22.4 21.8365 22.4 21.2V12.4C22.4 12.1878 22.4843 11.9844 22.6343 11.8343C22.7843 11.6843 22.9878 11.6 23.2 11.6C23.4122 11.6 23.6157 11.6843 23.7657 11.8343C23.9157 11.9844 24 12.1878 24 12.4Z" fill="#444444"/>
</svg>
