<svg width="32" height="32" viewBox="0 0 32 32" fill="none" xmlns="http://www.w3.org/2000/svg">
<path d="M19.7466 21.251C19.7466 23.3204 18.0671 25 15.9976 25H10.749C8.67956 25 7 23.3204 7 21.251V16.0024C7 13.9329 8.67956 12.2534 10.749 12.2534H11.4988C11.9112 12.2534 12.2486 12.5908 12.2486 13.0032C12.2486 13.4156 11.9112 13.753 11.4988 13.753H10.749C9.51183 13.753 8.4996 14.7652 8.4996 16.0024V21.251C8.4996 22.4882 9.51183 23.5004 10.749 23.5004H15.9976C17.2348 23.5004 18.247 22.4882 18.247 21.251C18.247 20.8386 18.5844 20.5012 18.9968 20.5012C19.4092 20.5012 19.7466 20.8386 19.7466 21.251ZM24.3429 11.4211L20.2865 7.22971C20.0016 6.92979 19.5217 6.92229 19.2293 7.21471C18.9368 7.50713 18.9218 7.97951 19.2143 8.27193L23.0682 12.2459H16.7474C14.678 12.2459 12.9984 13.9254 12.9984 15.9949V19.7439C12.9984 20.1563 13.3358 20.4937 13.7482 20.4937C14.1606 20.4937 14.498 20.1563 14.498 19.7439V15.9949C14.498 14.7577 15.5102 13.7455 16.7474 13.7455H23.0607L19.2068 17.7194C18.9218 18.0193 18.9218 18.4917 19.2218 18.7766C19.3642 18.9191 19.5592 18.9866 19.7466 18.9866C19.9341 18.9866 20.1365 18.9116 20.2865 18.7617L24.3354 14.5853C25.2127 13.708 25.2127 12.2834 24.3429 11.4136V11.4211Z" fill="#444444"/>
</svg>
