<svg width="32" height="32" viewBox="0 0 32 32" fill="none" xmlns="http://www.w3.org/2000/svg">
<path d="M21.3528 25C21.0754 24.9992 20.8008 24.9435 20.545 24.836C20.2893 24.7285 20.0573 24.5714 19.8626 24.3738L16.2501 21.7883L12.6376 24.3768C12.3414 24.6773 11.9615 24.8816 11.5474 24.9631C11.1334 25.0446 10.7044 24.9994 10.3163 24.8335C9.92448 24.6759 9.58925 24.4038 9.35444 24.0527C9.11962 23.7016 8.99613 23.2879 9.00009 22.8655V10.75C9.00009 9.75544 9.39518 8.80161 10.0984 8.09835C10.8017 7.39509 11.7555 7 12.7501 7L19.7501 7C20.2425 7 20.7302 7.097 21.1852 7.28545C21.6401 7.47391 22.0535 7.75013 22.4017 8.09835C22.75 8.44657 23.0262 8.85997 23.2146 9.31494C23.4031 9.76991 23.5001 10.2575 23.5001 10.75V22.8655C23.5043 23.2875 23.3812 23.701 23.147 24.052C22.9127 24.4031 22.5781 24.6754 22.1868 24.8335C21.9227 24.944 21.6392 25.0006 21.3528 25ZM12.7501 8.5C12.1534 8.5 11.5811 8.73705 11.1591 9.15901C10.7371 9.58097 10.5001 10.1533 10.5001 10.75V22.8655C10.4998 22.9905 10.5366 23.1127 10.6058 23.2168C10.6749 23.3209 10.7734 23.4022 10.8887 23.4503C11.0041 23.4985 11.1311 23.5114 11.2537 23.4874C11.3764 23.4634 11.4892 23.4036 11.5778 23.3155L15.7251 20.1998C15.8656 20.0601 16.0557 19.9817 16.2538 19.9817C16.452 19.9817 16.6421 20.0601 16.7826 20.1998L20.9238 23.314C21.0125 23.4021 21.1253 23.4619 21.248 23.4859C21.3706 23.5099 21.4976 23.497 21.6129 23.4488C21.7283 23.4007 21.8267 23.3194 21.8959 23.2153C21.9651 23.1112 22.0019 22.989 22.0016 22.864V10.75C22.0016 10.1533 21.7645 9.58097 21.3426 9.15901C20.9206 8.73705 20.3483 8.5 19.7516 8.5H12.7501Z" fill="#444444"/>
</svg>
