<svg width="18" height="18" viewBox="0 0 18 18" fill="none" xmlns="http://www.w3.org/2000/svg">
<path d="M14.6667 3.66667H12.6C12.4453 2.91428 12.0359 2.23823 11.4408 1.75248C10.8458 1.26673 10.1015 1.00097 9.33333 1L8 1C7.23186 1.00097 6.48755 1.26673 5.8925 1.75248C5.29745 2.23823 4.88806 2.91428 4.73333 3.66667H2.66667C2.48986 3.66667 2.32029 3.7369 2.19526 3.86193C2.07024 3.98695 2 4.15652 2 4.33333C2 4.51014 2.07024 4.67971 2.19526 4.80474C2.32029 4.92976 2.48986 5 2.66667 5H3.33333V13.6667C3.33439 14.5504 3.68592 15.3976 4.31081 16.0225C4.93571 16.6474 5.78294 16.9989 6.66667 17H10.6667C11.5504 16.9989 12.3976 16.6474 13.0225 16.0225C13.6474 15.3976 13.9989 14.5504 14 13.6667V5H14.6667C14.8435 5 15.013 4.92976 15.1381 4.80474C15.2631 4.67971 15.3333 4.51014 15.3333 4.33333C15.3333 4.15652 15.2631 3.98695 15.1381 3.86193C15.013 3.7369 14.8435 3.66667 14.6667 3.66667ZM8 2.33333H9.33333C9.74685 2.33384 10.1501 2.46225 10.4877 2.70096C10.8254 2.93967 11.0809 3.27699 11.2193 3.66667H6.114C6.25239 3.27699 6.50793 2.93967 6.84559 2.70096C7.18325 2.46225 7.58648 2.33384 8 2.33333ZM12.6667 13.6667C12.6667 14.1971 12.456 14.7058 12.0809 15.0809C11.7058 15.456 11.1971 15.6667 10.6667 15.6667H6.66667C6.13623 15.6667 5.62753 15.456 5.25245 15.0809C4.87738 14.7058 4.66667 14.1971 4.66667 13.6667V5H12.6667V13.6667Z" fill="#D6D6D6"/>
<path d="M7.33366 12.9998C7.51047 12.9998 7.68004 12.9296 7.80506 12.8046C7.93009 12.6796 8.00033 12.51 8.00033 12.3332V8.33317C8.00033 8.15636 7.93009 7.98679 7.80506 7.86177C7.68004 7.73674 7.51047 7.6665 7.33366 7.6665C7.15685 7.6665 6.98728 7.73674 6.86225 7.86177C6.73723 7.98679 6.66699 8.15636 6.66699 8.33317V12.3332C6.66699 12.51 6.73723 12.6796 6.86225 12.8046C6.98728 12.9296 7.15685 12.9998 7.33366 12.9998Z" fill="#D6D6D6"/>
<path d="M10.0007 12.9998C10.1775 12.9998 10.347 12.9296 10.4721 12.8046C10.5971 12.6796 10.6673 12.51 10.6673 12.3332V8.33317C10.6673 8.15636 10.5971 7.98679 10.4721 7.86177C10.347 7.73674 10.1775 7.6665 10.0007 7.6665C9.82384 7.6665 9.65427 7.73674 9.52925 7.86177C9.40422 7.98679 9.33398 8.15636 9.33398 8.33317V12.3332C9.33398 12.51 9.40422 12.6796 9.52925 12.8046C9.65427 12.9296 9.82384 12.9998 10.0007 12.9998Z" fill="#D6D6D6"/>
</svg>
