<svg width="24" height="25" viewBox="0 0 24 25" fill="none" xmlns="http://www.w3.org/2000/svg">
<path d="M24.0009 11.271C23.8563 8.93102 23.03 6.68451 21.6241 4.80843C20.2181 2.93234 18.2939 1.50869 16.0886 0.712996C13.8833 -0.0827016 11.4934 -0.215665 9.21345 0.330497C6.93351 0.876659 4.86323 2.07807 3.25784 3.78662C1.65245 5.49517 0.582125 7.63616 0.178826 9.94566C-0.224472 12.2552 0.056881 14.6322 0.988201 16.7837C1.91952 18.9352 3.46009 20.7672 5.41999 22.0538C7.37989 23.3403 9.67344 24.0252 12.0179 24.024H19.0009C20.3266 24.0227 21.5976 23.4955 22.535 22.5581C23.4724 21.6207 23.9996 20.3497 24.0009 19.024V11.271ZM22.0009 19.024C22.0009 19.8196 21.6848 20.5827 21.1222 21.1453C20.5596 21.7079 19.7965 22.024 19.0009 22.024H12.0179C10.6068 22.0234 9.21173 21.7253 7.92358 21.1493C6.63544 20.5733 5.48316 19.7322 4.54188 18.681C3.59606 17.6303 2.88581 16.3895 2.45878 15.0418C2.03174 13.6941 1.89778 12.2707 2.06589 10.867C2.33132 8.65294 3.32607 6.59019 4.89333 5.00392C6.46058 3.41766 8.51119 2.39811 10.7219 2.106C11.1531 2.05195 11.5873 2.02457 12.0219 2.024C14.3524 2.01764 16.6107 2.8319 18.4009 4.324C19.4464 5.19294 20.3046 6.26515 20.9234 7.47563C21.5422 8.68611 21.9088 10.0096 22.0009 11.366V19.024Z" fill="#828282"/>
<path d="M8.00098 9.02393H12.001C12.2662 9.02393 12.5205 8.91857 12.7081 8.73103C12.8956 8.5435 13.001 8.28914 13.001 8.02393C13.001 7.75871 12.8956 7.50436 12.7081 7.31682C12.5205 7.12928 12.2662 7.02393 12.001 7.02393H8.00098C7.73576 7.02393 7.48141 7.12928 7.29387 7.31682C7.10633 7.50436 7.00098 7.75871 7.00098 8.02393C7.00098 8.28914 7.10633 8.5435 7.29387 8.73103C7.48141 8.91857 7.73576 9.02393 8.00098 9.02393Z" fill="#828282"/>
<path d="M16.001 11.0239H8.00098C7.73576 11.0239 7.48141 11.1293 7.29387 11.3168C7.10633 11.5044 7.00098 11.7587 7.00098 12.0239C7.00098 12.2891 7.10633 12.5435 7.29387 12.731C7.48141 12.9186 7.73576 13.0239 8.00098 13.0239H16.001C16.2662 13.0239 16.5205 12.9186 16.7081 12.731C16.8956 12.5435 17.001 12.2891 17.001 12.0239C17.001 11.7587 16.8956 11.5044 16.7081 11.3168C16.5205 11.1293 16.2662 11.0239 16.001 11.0239Z" fill="#828282"/>
<path d="M16.001 15.0239H8.00098C7.73576 15.0239 7.48141 15.1293 7.29387 15.3168C7.10633 15.5044 7.00098 15.7587 7.00098 16.0239C7.00098 16.2891 7.10633 16.5435 7.29387 16.731C7.48141 16.9186 7.73576 17.0239 8.00098 17.0239H16.001C16.2662 17.0239 16.5205 16.9186 16.7081 16.731C16.8956 16.5435 17.001 16.2891 17.001 16.0239C17.001 15.7587 16.8956 15.5044 16.7081 15.3168C16.5205 15.1293 16.2662 15.0239 16.001 15.0239Z" fill="#828282"/>
</svg>
