<svg width="17" height="17" viewBox="0 0 17 17" fill="none" xmlns="http://www.w3.org/2000/svg">
<path d="M15.7231 10.0161L14.2131 8.83407C14.2356 8.62816 14.2473 8.42121 14.2481 8.21408C14.2477 8.00693 14.236 7.79996 14.2131 7.59408L15.7241 6.41207C15.8609 6.30169 15.9541 6.14623 15.9869 5.97347C16.0197 5.80072 15.9899 5.62194 15.903 5.46908L14.3331 2.75106C14.2474 2.59519 14.1077 2.47602 13.9402 2.41598C13.7728 2.35594 13.5892 2.35917 13.424 2.42507L11.642 3.14004C11.3072 2.89749 10.9488 2.68946 10.5721 2.51907L10.3011 0.629054C10.2775 0.453675 10.1907 0.292947 10.0571 0.176966C9.92341 0.0609855 9.75196 -0.0022893 9.57501 -0.000951177H6.42511C6.24928 -0.00242237 6.0788 0.0600972 5.94561 0.174891C5.81242 0.289685 5.7256 0.448953 5.70111 0.623072L5.42901 2.5231C5.05344 2.69445 4.69572 2.90243 4.36102 3.14407L2.57501 2.42605C2.41122 2.36496 2.23112 2.36366 2.06646 2.42239C1.90181 2.48112 1.76327 2.59614 1.67511 2.7471L0.102108 5.46804C0.0126932 5.62102 -0.0186034 5.80116 0.0140953 5.97531C0.0467939 6.14945 0.141271 6.30592 0.280086 6.41604L1.7901 7.59805C1.74324 8.00972 1.74324 8.42539 1.7901 8.83706L0.278988 10.0191C0.142203 10.1298 0.0492634 10.2855 0.0166587 10.4584C-0.015946 10.6313 0.0139283 10.8101 0.101009 10.963L1.67108 13.6801C1.75642 13.8363 1.89612 13.9557 2.06366 14.0158C2.23119 14.0759 2.41486 14.0724 2.58001 14.0061L4.362 13.291C4.69661 13.5334 5.05484 13.7414 5.43109 13.9121L5.70208 15.8021C5.72544 15.9775 5.8119 16.1383 5.94537 16.2545C6.07884 16.3706 6.25012 16.4341 6.42706 16.4331H9.57708C9.75302 16.4346 9.92346 16.3721 10.0568 16.2573C10.1902 16.1426 10.2773 15.9832 10.3021 15.809L10.574 13.9091C10.9495 13.7371 11.3071 13.5287 11.642 13.2871L13.428 14.0051C13.5138 14.0384 13.6051 14.0554 13.6971 14.0551C13.826 14.0555 13.9527 14.0215 14.064 13.9564C14.1753 13.8913 14.2672 13.7977 14.33 13.6851L15.908 10.9531C15.993 10.8003 16.0211 10.6222 15.9872 10.4506C15.9534 10.2791 15.8598 10.1251 15.7231 10.0161ZM8.00103 10.9541C7.45951 10.9541 6.93018 10.7935 6.47992 10.4926C6.02965 10.1918 5.67873 9.76418 5.47149 9.26388C5.26426 8.76358 5.20996 8.21303 5.31561 7.68191C5.42126 7.15079 5.68208 6.66291 6.065 6.27999C6.44791 5.89708 6.93573 5.63631 7.46685 5.53066C7.99797 5.42502 8.54858 5.47925 9.04889 5.68649C9.54919 5.89372 9.97679 6.24465 10.2776 6.69491C10.5785 7.14517 10.7391 7.67456 10.7391 8.21609C10.7383 8.94201 10.4495 9.63797 9.93621 10.1513C9.42291 10.6646 8.72695 10.9533 8.00103 10.9541Z" fill="#D1D1D1"/>
</svg>
